<svg width="589" height="445" viewBox="0 0 589 445" fill="none" xmlns="http://www.w3.org/2000/svg">
<path d="M562.113 254.553L269.87 423.607C264.131 426.932 257.621 428.698 250.988 428.729C244.355 428.761 237.829 427.057 232.058 423.787L25.6705 306.864C23.8166 305.816 22.2712 304.298 21.1892 302.464C20.1073 300.629 19.527 298.542 19.5065 296.413C19.486 294.283 20.0261 292.185 21.0725 290.33C22.119 288.475 23.635 286.928 25.4683 285.844L330.863 104.908C332.728 103.795 334.857 103.202 337.028 103.192C339.2 103.182 341.334 103.754 343.209 104.849L562.188 233.532C564.028 234.605 565.554 236.142 566.611 237.991C567.669 239.84 568.222 241.934 568.214 244.064C568.207 246.194 567.639 248.284 566.568 250.125C565.497 251.966 563.96 253.493 562.113 254.553Z" fill="#19A7EB"/>
<path d="M362.315 197.53C362.315 197.53 359.982 223.872 364.992 234.526C370.001 245.181 407.042 264.11 407.042 264.11C407.042 264.11 413.151 253.841 412.108 249.721C411.064 245.601 383.933 221.812 383.933 221.812L383.801 194.02" fill="#161455"/>
<path d="M389.111 193.98C389.741 202.404 389.195 210.874 387.49 219.148C385.922 226.987 383.682 234.676 380.797 242.131L396.629 286.218C396.629 286.218 388.907 292.779 383.948 292.686C378.989 292.592 365.091 255.356 361.152 248.427C357.213 241.497 369.934 194.071 369.934 194.071" fill="#171457"/>
<path d="M360.256 152.09L312.028 167.766L315.779 181.353L363.835 166.599" fill="#FFFFFB"/>
<path d="M372.781 183.642C373.824 183.569 374.862 183.471 375.895 183.349C372.657 169.79 362.919 139.951 361.266 182.995C365.052 183.771 368.931 183.989 372.781 183.642Z" fill="#35406E"/>
<path d="M385.579 158.567C385.341 157.321 384.805 156.152 384.015 155.159C383.226 154.166 382.207 153.381 381.046 152.869C378.948 151.798 376.667 151.129 374.322 150.897C369.605 150.939 364.898 151.338 360.241 152.09C354.419 158.13 356.939 171.4 358.07 178.431C359.124 184.906 360.763 191.233 362.286 197.603C369.882 201.648 383.686 197.399 389.088 195.282C389.172 182.956 387.996 170.654 385.579 158.567Z" fill="#FCFEFF"/>
<path d="M381.112 135.959C380.6 135.129 379.819 134.499 378.899 134.176C377.979 133.853 376.975 133.856 376.057 134.184C376.03 134.1 375.991 134.021 375.939 133.95C374.938 132.653 374.566 131.353 372.91 130.732C371.381 130.225 369.744 130.137 368.169 130.476C366.644 130.705 365.271 131.526 364.348 132.762C364.229 132.672 364.086 132.622 363.938 132.617C362.282 132.54 360.662 133.111 359.422 134.21C358.181 135.309 357.418 136.848 357.295 138.5C357.163 141.426 359.139 144.781 362.081 145.25C363.459 145.885 364.957 146.217 366.474 146.224C366.79 146.211 367.096 146.116 367.363 145.947C367.63 145.779 367.847 145.543 367.994 145.264C368.141 144.984 368.212 144.671 368.2 144.356C368.187 144.041 368.092 143.734 367.924 143.467L368.157 143.349L368.319 143.436C368.531 143.738 368.85 143.949 369.211 144.026C369.572 144.103 369.949 144.04 370.266 143.851L370.529 143.733C370.904 143.674 371.272 143.574 371.625 143.435L372.021 143.609L371.847 144.019C371.716 144.367 371.703 144.749 371.811 145.106C371.918 145.462 372.14 145.773 372.441 145.991C372.744 146.165 373.077 146.278 373.423 146.323C372.572 147.379 371.497 148.234 370.275 148.824C368.582 149.491 369.309 151.755 370.773 151.996C370.015 152.468 369.986 155.774 370.862 155.375C373.062 154.412 375.036 153 376.658 151.229C378.279 149.458 379.512 147.367 380.278 145.091C380.999 142.952 382.424 137.971 381.112 135.959Z" fill="#2A343D"/>
<path d="M361.197 140.866C360.787 140.751 359.507 154.683 365.132 156.134C372.22 157.958 375.706 149.633 375.706 149.633C375.706 149.633 377.344 143.393 373.046 140.868C368.748 138.343 366.265 142.261 361.197 140.866Z" fill="#EF986C"/>
<path d="M361.197 140.866C361.197 140.866 366.778 142.434 369.978 141.658C373.178 140.882 367.868 150.255 370.107 150.434C372.346 150.614 372.702 145.346 374.233 147.489C375.765 149.632 370.906 155.36 370.906 155.36C370.906 155.36 377.301 152.843 379.193 147.685C381.085 142.527 374.753 136.896 368.273 136.839C361.792 136.782 361.197 140.866 361.197 140.866Z" fill="#2A343D"/>
<path d="M393.961 278.829C393.961 278.829 386.275 286.75 376.822 282.992C376.822 282.992 381.531 295.096 380.995 299.37C380.46 303.644 373.624 308.855 371.597 310.166C369.57 311.478 370.312 313.698 371.624 315.915C372.937 318.132 384.62 313.995 387.379 312.915C390.139 311.834 393.196 305.675 394.095 307.031C394.993 308.388 394.112 310.732 394.112 310.732C394.112 310.732 400.881 309.779 402.169 306.993C403.458 304.208 393.961 278.829 393.961 278.829Z" fill="#2A343D"/>
<path d="M174.46 191.225L175.011 307.355C175.029 310.727 175.931 314.035 177.629 316.948C179.327 319.862 181.761 322.278 184.686 323.956L242.803 357.646C245.995 359.502 249.63 360.461 253.322 360.42C257.015 360.379 260.628 359.341 263.778 357.415L327.203 319.988L326.556 183.584" fill="#2CCFFF"/>
<path opacity="0.17" d="M244.175 187.632L244.986 358.587C244.238 358.273 243.508 357.915 242.802 357.514L184.685 323.824C181.778 322.14 179.362 319.724 177.677 316.817C175.993 313.909 175.099 310.612 175.084 307.252L174.532 191.122L244.175 187.632Z" fill="white"/>
<path opacity="0.36" d="M326.582 189.157L326.637 200.669L255.815 239.272C253.06 241.018 249.868 241.952 246.605 241.968C243.343 241.983 240.142 241.079 237.37 239.36C227.322 233.454 174.508 201.391 174.508 201.391L174.46 191.152" fill="black"/>
<path d="M333.002 185.572L253.346 230.653C251.007 231.976 248.361 232.658 245.674 232.63C242.987 232.601 240.355 231.864 238.044 230.492L168.189 189.016C166.626 188.087 165.335 186.764 164.442 185.18C163.549 183.597 163.087 181.807 163.1 179.989C163.114 178.171 163.603 176.388 164.519 174.818C165.435 173.247 166.747 171.944 168.323 171.038L237.953 131.109C240.851 129.453 244.135 128.589 247.473 128.604C250.811 128.619 254.087 129.512 256.97 131.194L333.043 175.785C333.901 176.284 334.612 177 335.105 177.861C335.598 178.722 335.856 179.698 335.851 180.69C335.847 181.683 335.582 182.656 335.081 183.513C334.581 184.37 333.864 185.08 333.002 185.572Z" fill="#68E1FD"/>
<path d="M335.858 180.19L335.797 170.374L331.232 176.394L335.858 180.19Z" fill="#68E1FD"/>
<path d="M163.052 170.083L163.101 180.366L167.181 176.997L163.052 170.083Z" fill="#68E1FD"/>
<g opacity="0.08">
<path opacity="0.08" d="M333.002 185.572L253.346 230.653C251.007 231.976 248.36 232.658 245.674 232.63C242.987 232.601 240.355 231.864 238.044 230.492L168.188 189.016C166.626 188.087 165.334 186.764 164.442 185.18C163.549 183.597 163.086 181.807 163.1 179.989C163.114 178.171 163.603 176.388 164.519 174.818C165.435 173.247 166.746 171.944 168.322 171.038L237.953 131.109C240.851 129.453 244.135 128.589 247.473 128.604C250.811 128.619 254.086 129.512 256.97 131.194L333.043 175.785C333.901 176.284 334.612 177 335.105 177.861C335.598 178.722 335.855 179.698 335.851 180.69C335.847 181.683 335.581 182.656 335.081 183.513C334.581 184.37 333.864 185.08 333.002 185.572Z" fill="black"/>
<path opacity="0.08" d="M335.858 180.19L335.797 170.374L331.232 176.394L335.858 180.19Z" fill="black"/>
<path opacity="0.08" d="M163.052 170.083L163.101 180.366L167.181 176.997L163.052 170.083Z" fill="black"/>
</g>
<path d="M332.954 175.42L253.298 220.502C250.959 221.825 248.312 222.506 245.625 222.478C242.939 222.45 240.307 221.712 237.996 220.34L168.14 178.865C166.578 177.935 165.286 176.612 164.394 175.029C163.501 173.445 163.038 171.655 163.052 169.837C163.066 168.019 163.555 166.236 164.471 164.666C165.387 163.096 166.698 161.793 168.274 160.886L237.905 120.943C240.803 119.286 244.086 118.422 247.425 118.437C250.763 118.452 254.038 119.346 256.922 121.028L332.995 165.619C333.856 166.117 334.571 166.833 335.066 167.696C335.561 168.558 335.82 169.537 335.816 170.531C335.812 171.526 335.545 172.502 335.042 173.361C334.539 174.219 333.819 174.93 332.954 175.42Z" fill="#2BD0FE"/>
<path opacity="0.37" d="M318.169 173.369L252.592 210.47C250.667 211.56 248.489 212.122 246.277 212.099C244.065 212.077 241.899 211.469 239.997 210.34L182.507 176.222C181.22 175.456 180.156 174.367 179.421 173.062C178.686 171.757 178.306 170.283 178.318 168.785C178.33 167.288 178.734 165.82 179.49 164.527C180.246 163.234 181.328 162.162 182.627 161.418L239.989 128.539C242.375 127.171 245.081 126.457 247.832 126.469C250.583 126.482 253.282 127.221 255.656 128.611L318.234 165.338C318.935 165.751 319.516 166.341 319.917 167.049C320.318 167.757 320.526 168.558 320.52 169.372C320.513 170.186 320.293 170.984 319.88 171.685C319.467 172.387 318.878 172.968 318.169 173.369Z" fill="black"/>
<path d="M333.024 165.633L353.615 78.3084C354.185 75.8932 353.936 73.3574 352.909 71.0988C351.881 68.8401 350.133 66.9864 347.939 65.8283L283.413 31.7293C282.454 31.2322 281.394 30.9594 280.314 30.9315C279.234 30.9037 278.161 31.1214 277.177 31.5684C276.193 32.0153 275.324 32.6798 274.634 33.5117C273.944 34.3437 273.453 35.3213 273.196 36.371L253.11 119.32L333.024 165.633Z" fill="#68E1FD"/>
<path opacity="0.08" d="M333.024 165.633L353.615 78.3084C354.185 75.8932 353.936 73.3574 352.909 71.0988C351.881 68.8401 350.133 66.9864 347.939 65.8283L283.413 31.7293C282.454 31.2322 281.394 30.9594 280.314 30.9315C279.234 30.9037 278.161 31.1214 277.177 31.5684C276.193 32.0153 275.324 32.6798 274.634 33.5117C273.944 34.3437 273.453 35.3213 273.196 36.371L253.11 119.32L333.024 165.633Z" fill="#2CCFFF"/>
<path opacity="0.37" d="M246.957 126.532C249.984 126.373 252.992 127.101 255.612 128.626L318.234 165.338C318.939 165.75 319.523 166.34 319.926 167.05C320.33 167.759 320.539 168.563 320.532 169.379C320.526 170.196 320.304 170.996 319.889 171.699C319.474 172.402 318.881 172.983 318.169 173.384L252.592 210.485C250.982 211.39 249.191 211.928 247.348 212.06L246.957 126.532Z" fill="black"/>
<path d="M337.401 325.452C341.324 315.902 338.421 305.662 330.918 302.58C323.415 299.499 314.153 304.743 310.231 314.293C306.308 323.844 309.211 334.084 316.714 337.166C324.217 340.247 333.479 335.003 337.401 325.452Z" fill="#004EAF"/>
<path d="M338.252 305.424L329.503 302.087L329.074 307.208" fill="#AF4E28"/>
<path d="M324.051 339.999L316.709 337.152L322.293 336.292L324.051 339.999Z" fill="#915200"/>
<path d="M344.349 328.303C348.271 318.752 345.369 308.512 337.866 305.43C330.363 302.349 321.101 307.593 317.178 317.144C313.256 326.694 316.159 336.935 323.662 340.016C331.164 343.098 340.427 337.853 344.349 328.303Z" fill="#004EAF"/>
<path d="M340.893 326.253C343.757 319.281 341.637 311.805 336.16 309.555C330.682 307.306 323.92 311.134 321.056 318.106C318.193 325.079 320.312 332.555 325.79 334.805C331.268 337.054 338.03 333.226 340.893 326.253Z" fill="white"/>
<path d="M218.372 197.028L212.394 170.478C211.482 166.313 217.927 164.893 218.853 168.984L224.713 195.536C224.823 195.998 224.827 196.478 224.726 196.942C224.625 197.406 224.421 197.842 224.13 198.216C223.838 198.591 223.466 198.896 223.041 199.108C222.616 199.32 222.149 199.434 221.675 199.441L239.953 210.296C241.854 211.426 244.021 212.033 246.233 212.056C248.445 212.079 250.623 211.517 252.548 210.426L252.665 210.426C252.657 208.778 252.65 207.135 252.642 205.496C252.638 204.809 252.635 204.121 252.632 203.434C252.347 201.972 252.063 200.613 251.763 199.21C249.443 188.031 247.049 176.852 244.13 165.807C242.789 160.737 243.081 160.473 240.791 155.773C239.967 153.924 239.015 152.135 237.942 150.418C236.098 147.106 227.859 130.864 226.774 127.256C225.778 123.926 224.796 120.581 223.888 117.221C223.888 117.221 227.529 113.766 223.436 108.241C223.974 110.696 220.448 113.551 215.552 114.627C210.657 115.704 206.249 114.598 205.71 112.143C205.71 112.143 204.528 118.731 210.009 120.987C210.742 121.291 210.523 124.379 210.54 124.949C210.589 132.586 210.068 140.217 208.981 147.776C208.064 154.992 206.592 162.284 207.695 169.564C208.555 175.25 209.621 180.906 210.701 186.547C211.195 189.017 211.734 191.487 212.199 193.957L218.448 197.672C218.403 197.46 218.378 197.245 218.372 197.028Z" fill="#7AC1E6"/>
<path d="M213.55 105.684C208.654 106.761 205.128 109.63 205.666 112.07L223.391 108.153C222.868 105.713 218.46 104.608 213.55 105.684Z" fill="#67412E"/>
<path d="M215.523 114.554C220.418 113.478 223.944 110.608 223.406 108.168L205.681 112.07C206.278 114.525 210.671 115.63 215.523 114.554Z" fill="#67412E"/>
<path d="M224.772 195.594L218.912 169.042C218 164.892 211.585 166.312 212.453 170.536L218.372 197.028C218.416 197.218 218.476 197.404 218.55 197.583L221.777 199.499C222.248 199.485 222.71 199.367 223.13 199.152C223.549 198.937 223.916 198.632 224.202 198.258C224.489 197.884 224.689 197.451 224.788 196.99C224.886 196.529 224.881 196.052 224.772 195.594Z" fill="#FEFEFE"/>
<path d="M276.022 197.223C276.077 190.23 276.073 183.224 275.762 176.233C275.84 174.021 275.598 171.81 275.043 169.668C274.781 168.428 274.433 167.208 274.002 166.016C273.318 163.752 270.413 152.751 270.227 150.411C270.04 148.072 269.899 146.024 269.786 143.904C269.786 143.904 272.47 142.282 270.696 138.355C270.703 139.921 268.164 141.205 265.034 141.22C261.903 141.235 259.352 139.974 259.345 138.409C259.345 138.409 257.754 142.279 260.836 144.37C261.247 144.646 260.7 146.507 260.643 146.858C259.668 151.53 258.345 156.123 256.685 160.598C255.243 164.876 253.318 169.142 253.032 173.781C252.815 177.366 252.715 180.965 252.645 184.549C252.528 190.84 252.558 197.144 252.632 203.434C253.071 205.558 253.501 207.682 253.92 209.806L276.022 197.223ZM258.246 199.736C257.699 199.738 257.174 199.523 256.785 199.138C256.396 198.753 256.176 198.23 256.174 197.683C256.171 197.136 256.386 196.61 256.771 196.222C257.156 195.833 257.68 195.613 258.227 195.61C258.776 195.608 259.303 195.823 259.693 196.21C260.083 196.596 260.304 197.122 260.306 197.67C260.309 198.219 260.093 198.747 259.707 199.137C259.321 199.527 258.795 199.748 258.246 199.75L258.246 199.736ZM255.802 174.879C255.8 174.332 256.015 173.807 256.4 173.418C256.784 173.029 257.308 172.81 257.855 172.807C258.402 172.804 258.928 173.019 259.316 173.404C259.705 173.789 259.925 174.313 259.927 174.86L260.008 191.945C260.011 192.492 259.796 193.018 259.411 193.406C259.026 193.795 258.503 194.015 257.956 194.017C257.409 194.02 256.883 193.805 256.494 193.42C256.106 193.035 255.886 192.512 255.883 191.965L255.802 174.879Z" fill="#7AC1E1"/>
<path d="M252.709 210.382L253.89 209.718C253.471 207.594 253.041 205.47 252.602 203.346C252.605 204.034 252.609 204.721 252.612 205.409C252.649 207.076 252.681 208.734 252.709 210.382Z" fill="#C7008B"/>
<path d="M265.007 135.545C261.877 135.559 259.337 136.844 259.345 138.409L270.754 138.355C270.747 136.775 268.152 135.53 265.007 135.545Z" fill="#67412E"/>
<path d="M265.034 141.205C268.164 141.191 270.703 139.906 270.696 138.341L259.359 138.395C259.367 139.974 261.903 141.22 265.034 141.205Z" fill="#67412E"/>
<path d="M260.008 191.945L259.928 174.933C259.925 174.386 259.705 173.862 259.317 173.477C258.928 173.092 258.402 172.878 257.855 172.88C257.308 172.883 256.785 173.103 256.4 173.491C256.015 173.88 255.8 174.405 255.803 174.952L255.883 191.965C255.886 192.512 256.106 193.035 256.494 193.42C256.883 193.805 257.409 194.02 257.956 194.017C258.503 194.015 259.026 193.795 259.411 193.406C259.796 193.018 260.011 192.492 260.008 191.945Z" fill="#FEFEFE"/>
<path d="M258.227 195.61C257.68 195.613 257.156 195.833 256.771 196.222C256.386 196.61 256.171 197.136 256.174 197.683C256.176 198.23 256.396 198.753 256.785 199.138C257.174 199.523 257.699 199.738 258.246 199.736C258.793 199.733 259.317 199.513 259.702 199.124C260.087 198.736 260.301 198.21 260.299 197.663C260.296 197.116 260.077 196.593 259.688 196.208C259.299 195.823 258.774 195.608 258.227 195.61Z" fill="#FEFEFE"/>
<path d="M221.718 199.441L218.491 197.525C218.74 198.158 219.192 198.69 219.776 199.037C220.361 199.383 221.044 199.526 221.718 199.441Z" fill="white"/>
<path d="M378.562 159.595C378.562 159.595 386.76 170.118 382.458 179.047C378.155 187.976 337.053 206.924 337.053 206.924L330.295 194.654L372.674 164.231" fill="#FFFDFE"/>
<path d="M331.637 197.105C331.637 197.105 328.175 198.116 326.152 197.131C324.129 196.146 322.594 193.257 321.255 194.697C319.916 196.137 323.296 199.354 323.296 199.354C323.296 199.354 325.942 199.092 324.772 202.272C323.602 205.452 319.964 212.418 320.967 214.271C321.971 216.124 324.895 215.715 326.818 214.243C328.742 212.771 332.81 206.783 332.806 205.95C332.802 205.116 334.782 203.088 334.782 203.088L331.637 197.105Z" fill="#EF986C"/>
<path d="M377.286 279.157L369.256 260.793C366.698 254.954 362.423 248.128 362.246 241.649C362.086 235.608 364.659 229.116 366.299 223.359C368.184 216.738 370.215 210.175 372.247 203.568C372.564 202.543 371.024 201.819 370.707 202.859C368.791 209.07 366.875 215.296 365.076 221.551C363.278 227.806 360.372 235.016 360.505 241.613C360.622 247.698 364.307 253.678 366.688 259.137L375.724 279.793C376.124 280.801 377.716 280.208 377.286 279.157Z" fill="#171355"/>
<path d="M406.533 243.238C406.533 243.238 404.873 254.144 394.996 256.575C394.996 256.575 405.855 263.691 407.906 267.485C409.958 271.278 407.422 279.482 406.511 281.724C405.6 283.967 407.523 285.333 409.868 286.389C412.214 287.446 419.333 277.29 420.931 274.766C422.528 272.242 421.501 265.46 422.937 265.98C424.373 266.499 425.101 268.983 425.101 268.983C425.101 268.983 430.053 264.278 429.453 261.268C428.854 258.257 406.533 243.238 406.533 243.238Z" fill="#2A343D"/>
<path d="M191.74 269.14C192.603 270.488 193.771 271.615 195.149 272.43C195.574 272.662 195.985 272.864 196.41 273.053L197.495 273.53L205.206 277.063L205.426 277.179L205.615 286.233L205 285.958L201.833 284.51L200.25 283.786C199.152 283.325 198.155 282.654 197.315 281.81C196.822 281.315 196.428 280.731 196.151 280.09L191.711 269.315L191.74 269.14Z" fill="white"/>
<path d="M198.346 261.838C198.431 261.871 198.508 261.922 198.572 261.987C198.635 262.053 198.684 262.131 198.714 262.217C199.898 265.137 201.087 268.057 202.281 270.977C202.281 271.065 202.282 271.138 202.385 271.313L200.297 269.114L199.716 269.965C199.062 270.934 198.394 271.902 197.755 272.9C197.654 273.047 197.551 273.091 197.331 272.99C196.306 272.538 195.325 271.995 194.398 271.365C193.062 270.379 192.039 269.028 191.454 267.474C191.25 267.078 191.143 266.64 191.141 266.195C191.139 265.75 191.242 265.311 191.442 264.914C192.051 263.858 192.617 262.787 193.197 261.731L193.298 261.511L191.193 258.727L191.413 258.814L198.346 261.838Z" fill="white"/>
<path d="M201.591 251.963L201.825 252.079C202.962 252.807 203.897 253.809 204.545 254.992C205.383 256.297 206.072 257.692 206.598 259.151L206.6 259.488L203.244 264.404L196.333 256.743L196.478 256.522C197.553 255.055 198.6 253.587 199.69 252.192C199.927 251.932 200.249 251.766 200.598 251.724C200.947 251.682 201.299 251.767 201.591 251.963Z" fill="white"/>
<path d="M211.337 255.955C212.864 256.705 214.043 258.014 214.631 259.611C215.223 260.983 215.771 262.385 216.363 263.815L218.526 263.512L218.294 263.85C217.19 265.464 216.1 267.093 215.011 268.737C214.895 268.898 214.778 268.913 214.573 268.812L207.946 265.772L207.624 265.612L209.581 265.032L209.403 264.565C208.427 262.2 207.465 259.82 206.444 257.455C205.87 256.017 205.074 254.679 204.085 253.488C203.776 253.123 203.423 252.803 203.1 252.483L202.806 252.221L202.806 252.192L205.357 253.335L206.632 253.9L211.337 255.955Z" fill="white"/>
<path d="M211.35 277.136C211.355 278.116 211.476 279.008 211.539 279.914L211.788 280.045L214.148 281.116L217.696 282.679C218.707 283.195 219.85 283.394 220.975 283.249C221.364 283.148 221.745 283.019 222.114 282.863L222.115 283.024C220.839 285.253 219.577 287.512 218.285 289.713C217.618 290.842 216.522 291.052 215.1 290.444L214.088 289.996L212.08 289.084L211.728 288.924C211.733 289.875 211.737 290.782 211.742 291.85L211.564 291.441L208.161 283.163C208.16 282.988 208.027 282.827 208.158 282.695L211.38 277.297L211.35 277.136Z" fill="white"/>
<path d="M219.485 271.261C219.885 272.283 220.27 273.276 220.655 274.269C221.277 275.845 221.884 277.422 222.491 278.999C222.708 279.437 222.813 279.922 222.795 280.41C222.777 280.898 222.637 281.374 222.387 281.794C222.16 282.088 221.86 282.319 221.518 282.465C221.175 282.61 220.801 282.664 220.431 282.622C219.252 282.576 218.096 282.288 217.033 281.775L216.447 281.5C216.312 281.424 216.204 281.306 216.138 281.165C215.043 278.508 213.963 275.836 212.867 273.165L212.866 272.96L219.485 271.261Z" fill="white"/>
<path d="M385.916 223.529C385.916 223.529 382.54 242.562 382.412 243.323C382.818 246.021 383.373 248.694 384.073 251.331L386.052 252.2L389.266 226.614L385.916 223.529Z" fill="#171456"/>
</svg>
