<svg width="60" height="54" viewBox="0 0 60 54" fill="none" xmlns="http://www.w3.org/2000/svg">
<path d="M10.9077 53.7317V50.1575C10.9077 48.7874 10.1874 47.8939 8.95252 47.8939C8.33511 47.8939 7.66625 48.1322 7.20319 48.9066C6.84303 48.2513 6.32852 47.8939 5.55675 47.8939C5.04224 47.8939 4.52773 48.0726 4.11612 48.7279V48.013H3.03564V53.7317H4.11612V50.5745C4.11612 49.5618 4.57918 49.0853 5.29949 49.0853C6.01981 49.0853 6.37997 49.6214 6.37997 50.5745V53.7317H7.46044V50.5745C7.46044 49.5618 7.97495 49.0853 8.64382 49.0853C9.36413 49.0853 9.72429 49.6214 9.72429 50.5745V53.7317H10.9077ZM26.909 48.013H25.1596V46.2855H24.0792V48.013H23.1016V49.1449H24.0792V51.7659C24.0792 53.0764 24.5422 53.8508 25.777 53.8508C26.2401 53.8508 26.7546 53.6721 27.1148 53.4339L26.8061 52.3616C26.4974 52.5999 26.1372 52.6595 25.8799 52.6595C25.3654 52.6595 25.1596 52.302 25.1596 51.7063V49.1449H26.909V48.013ZM36.0673 47.8939C35.4498 47.8939 35.0382 48.2513 34.781 48.7279V48.013H33.7005V53.7317H34.781V50.515C34.781 49.5618 35.1411 49.0257 35.81 49.0257C36.0158 49.0257 36.2731 49.0853 36.4789 49.1449L36.7876 47.9535C36.5818 47.8939 36.2731 47.8939 36.0673 47.8939ZM22.2269 48.4896C21.7124 48.0726 20.9921 47.8939 20.2203 47.8939C18.9855 47.8939 18.1623 48.6087 18.1623 49.7405C18.1623 50.6937 18.7797 51.2298 19.8602 51.4085L20.3747 51.4681C20.9406 51.5872 21.2493 51.7659 21.2493 52.0638C21.2493 52.4807 20.8377 52.7786 20.1174 52.7786C19.3971 52.7786 18.8311 52.4807 18.471 52.1829L17.9565 53.136C18.5224 53.6126 19.2942 53.8508 20.066 53.8508C21.5066 53.8508 22.3298 53.0764 22.3298 52.0042C22.3298 50.9915 21.6609 50.4554 20.6319 50.2767L20.1174 50.2171C19.6544 50.1575 19.2942 50.0384 19.2942 49.681C19.2942 49.264 19.6544 49.0257 20.2203 49.0257C20.8377 49.0257 21.4551 49.3236 21.7638 49.5023L22.2269 48.4896ZM50.9366 47.8939C50.3192 47.8939 49.9076 48.2513 49.6504 48.7279V48.013H48.5699V53.7317H49.6504V50.515C49.6504 49.5618 50.0105 49.0257 50.6794 49.0257C50.8852 49.0257 51.1424 49.0853 51.3482 49.1449L51.657 47.9535C51.4511 47.8939 51.1424 47.8939 50.9366 47.8939ZM37.1477 50.8724C37.1477 52.5999 38.1768 53.8508 39.7717 53.8508C40.4921 53.8508 41.0066 53.6721 41.5211 53.1956L41.0066 52.1829C40.595 52.5403 40.1833 52.719 39.7203 52.719C38.8456 52.719 38.2282 52.0042 38.2282 50.8724C38.2282 49.8001 38.8456 49.0853 39.7203 49.0257C40.1833 49.0257 40.595 49.2044 41.0066 49.5618L41.5211 48.5492C41.0066 48.0726 40.4921 47.8939 39.7717 47.8939C38.1768 47.8939 37.1477 49.1449 37.1477 50.8724ZM47.1293 50.8724V48.013H46.0488V48.7279C45.6886 48.1917 45.1741 47.8939 44.5052 47.8939C43.1161 47.8939 42.0356 49.1449 42.0356 50.8724C42.0356 52.5999 43.1161 53.8508 44.5052 53.8508C45.2256 53.8508 45.7401 53.553 46.0488 53.0169V53.7317H47.1293V50.8724ZM43.1675 50.8724C43.1675 49.8597 43.7335 49.0257 44.6596 49.0257C45.5343 49.0257 46.1517 49.8001 46.1517 50.8724C46.1517 51.885 45.5343 52.719 44.6596 52.719C43.7335 52.6595 43.1675 51.885 43.1675 50.8724ZM30.2533 47.8939C28.8127 47.8939 27.7836 49.0853 27.7836 50.8724C27.7836 52.6595 28.8127 53.8508 30.3047 53.8508C31.0251 53.8508 31.7454 53.6126 32.3113 53.0764L31.7968 52.1829C31.3852 52.5403 30.8707 52.7786 30.3562 52.7786C29.6873 52.7786 29.0185 52.4212 28.8641 51.4085H32.5171V50.9319C32.5686 49.0853 31.6425 47.8939 30.2533 47.8939ZM30.2533 48.9661C30.9222 48.9661 31.3852 49.4427 31.4881 50.3362H28.9156C29.0185 49.5618 29.4815 48.9661 30.2533 48.9661ZM57.0593 50.8724V45.7494H55.9788V48.7279C55.6187 48.1917 55.1042 47.8939 54.4353 47.8939C53.0461 47.8939 51.9657 49.1449 51.9657 50.8724C51.9657 52.5999 53.0461 53.8508 54.4353 53.8508C55.1556 53.8508 55.6701 53.553 55.9788 53.0169V53.7317H57.0593V50.8724ZM53.0976 50.8724C53.0976 49.8597 53.6635 49.0257 54.5897 49.0257C55.4643 49.0257 56.0817 49.8001 56.0817 50.8724C56.0817 51.885 55.4643 52.719 54.5897 52.719C53.6635 52.6595 53.0976 51.885 53.0976 50.8724ZM16.9789 50.8724V48.013H15.8984V48.7279C15.5383 48.1917 15.0238 47.8939 14.3549 47.8939C12.9657 47.8939 11.8852 49.1449 11.8852 50.8724C11.8852 52.5999 12.9657 53.8508 14.3549 53.8508C15.0752 53.8508 15.5897 53.553 15.8984 53.0169V53.7317H16.9789V50.8724ZM12.9657 50.8724C12.9657 49.8597 13.5317 49.0257 14.4578 49.0257C15.3325 49.0257 15.9499 49.8001 15.9499 50.8724C15.9499 51.885 15.3325 52.719 14.4578 52.719C13.5317 52.6595 12.9657 51.885 12.9657 50.8724Z" fill="black"/>
<path d="M38.0738 4.58691H21.8667V38.3033H38.0738V4.58691Z" fill="#FF5F00"/>
<path d="M22.8957 21.445C22.8957 14.5945 25.6741 8.51844 29.9445 4.58685C26.806 1.72752 22.8443 0 18.5224 0C8.28363 0 0 9.5907 0 21.445C0 33.2994 8.28363 42.8901 18.5224 42.8901C22.8443 42.8901 26.806 41.1625 29.9445 38.3032C25.6741 34.4312 22.8957 28.2955 22.8957 21.445Z" fill="#EB001B"/>
<path d="M59.9402 21.445C59.9402 33.2994 51.6565 42.8901 41.4178 42.8901C37.0959 42.8901 33.1341 41.1625 29.9956 38.3032C34.3175 34.3716 37.0444 28.2955 37.0444 21.445C37.0444 14.5945 34.266 8.51844 29.9956 4.58685C33.1341 1.72752 37.0959 0 41.4178 0C51.6565 0 59.9402 9.65027 59.9402 21.445Z" fill="#F79E1B"/>
</svg>
