<svg width="44" height="43" viewBox="0 0 44 43" fill="none" xmlns="http://www.w3.org/2000/svg">
<path d="M39.4286 0H2.2857C1.02854 0 0 1.02379 0 2.27514V6.37036C0 7.62171 1.02854 8.6455 2.2857 8.6455H39.3143C40.5715 8.6455 41.6 7.62171 41.6 6.37036V2.27514C41.7143 1.02379 40.6857 0 39.4286 0ZM39.4286 22.8651H2.2857C1.02854 22.8651 0 23.8889 0 25.1402V29.2354C0 30.4868 1.02854 31.5106 2.2857 31.5106H39.3143C40.5715 31.5106 41.6 30.4868 41.6 29.2354V25.1402C41.7143 23.8889 40.6857 22.8651 39.4286 22.8651ZM23.2 34.3545H2.2857C1.02854 34.3545 0 35.3783 0 36.6296V40.7249C0 41.9762 1.02854 43 2.2857 43H23.2C24.4572 43 25.4857 41.9762 25.4857 40.7249V36.6296C25.4857 35.3783 24.4572 34.3545 23.2 34.3545ZM41.7143 11.4894H2.2857C1.02854 11.4894 0 12.5132 0 13.7645V17.8598C0 19.1111 1.02854 20.1349 2.2857 20.1349H41.7143C42.9715 20.1349 44 19.1111 44 17.8598V13.7645C44 12.5132 42.9715 11.4894 41.7143 11.4894Z" fill="#0BA4DB"/>
</svg>
