<svg width="87" height="32" viewBox="0 0 87 32" fill="none" xmlns="http://www.w3.org/2000/svg">
<path fill-rule="evenodd" clip-rule="evenodd" d="M30.1964 16.0115C30.1964 24.7453 23.4884 31.8253 15.2137 31.8253C6.9386 31.8253 0.230469 24.7453 0.230469 16.0115C0.230469 7.2778 6.9386 0.197752 15.2137 0.197752C23.4884 0.197752 30.1964 7.2778 30.1964 16.0115Z" fill="#ED342B"/>
<path fill-rule="evenodd" clip-rule="evenodd" d="M15.2138 22.7853C11.8624 14.7674 9.40515 7.2771 9.40515 7.2771H4.26758C4.26758 7.2771 7.39455 16.8909 13.203 28.9136H17.2246C23.033 16.8909 26.1597 7.2771 26.1597 7.2771H21.0222C21.0222 7.2771 18.5651 14.7674 15.2138 22.7853Z" fill="#FEFEFE"/>
<path fill-rule="evenodd" clip-rule="evenodd" d="M79.7386 15.1868C76.8343 15.1868 76.6113 18.4878 76.6113 18.4878H82.8654C82.8654 18.4878 82.6424 15.1868 79.7386 15.1868ZM86.6632 21.7883H76.6113C76.6113 21.7883 76.8343 25.3253 81.3024 25.3253C83.5359 25.3253 85.7697 24.6173 85.7697 24.6173L86.2167 28.3895C86.2167 28.3895 83.9829 29.3332 80.8554 29.3332C76.3879 29.3332 72.367 26.9752 72.367 20.3738C72.367 15.1868 75.4945 11.886 79.9621 11.886C86.6632 11.886 87.1097 18.9591 86.6632 21.7883ZM52.4829 16.2174L53.1746 12.3245C53.1746 12.3245 47.8337 10.614 43.4927 13.7839V29.3553H48.1029V16.7035C49.9469 15.2443 52.4829 16.2174 52.4829 16.2174ZM33.2663 15.1868C30.3626 15.1868 30.1394 18.4878 30.1394 18.4878H36.3937C36.3937 18.4878 36.1706 15.1868 33.2663 15.1868ZM40.1909 21.7883H30.1394C30.1394 21.7883 30.3626 25.3253 34.8301 25.3253C37.0634 25.3253 39.2974 24.6173 39.2974 24.6173L39.7445 28.3895C39.7445 28.3895 37.5104 29.3332 34.3831 29.3332C29.9156 29.3332 25.8945 26.9752 25.8945 20.3738C25.8945 15.1868 29.0221 11.886 33.4896 11.886C40.1909 11.886 40.6374 18.9591 40.1909 21.7883ZM63.7337 23.4041C61.3927 17.4737 60.2227 11.8888 60.2227 11.8888L55.5418 11.8894C55.5418 11.8894 57.8825 21.4272 61.862 29.3303H65.6054C69.585 21.4272 71.9258 11.8908 71.9258 11.8908H67.2446C67.2446 11.8908 66.0746 17.4737 63.7337 23.4041Z" fill="#03435F"/>
</svg>
