<svg width="98" height="32" viewBox="0 0 98 32" fill="none" xmlns="http://www.w3.org/2000/svg">
<path d="M42.3964 31.2425H34.4707L39.428 0.556152H47.3532L42.3964 31.2425Z" fill="#00579F"/>
<path d="M71.1279 1.30644C69.5646 0.685546 67.0851 0 64.0192 0C56.1923 0 50.6807 4.17835 50.6469 10.1521C50.5819 14.5596 54.5931 17.0076 57.5931 18.4772C60.6594 19.9789 61.7018 20.959 61.7018 22.2976C61.6706 24.3533 59.224 25.3009 56.9421 25.3009C53.7778 25.3009 52.0823 24.8124 49.5057 23.6687L48.4621 23.1784L47.353 30.0668C49.2119 30.9146 52.6367 31.667 56.1923 31.6999C64.5085 31.6999 69.9226 27.5862 69.9867 21.2202C70.0184 17.727 67.9003 15.0503 63.334 12.8631C60.5619 11.459 58.8643 10.5123 58.8643 9.07566C58.8968 7.76965 60.3001 6.43197 63.4293 6.43197C66.0059 6.36646 67.899 6.98648 69.3332 7.60694L70.05 7.9328L71.1279 1.30644Z" fill="#00579F"/>
<path d="M81.6617 20.3714C82.3144 18.6085 84.826 11.7856 84.826 11.7856C84.7931 11.8512 85.4774 9.9902 85.8688 8.84777L86.4227 11.4919C86.4227 11.4919 87.9235 18.8372 88.2495 20.3714C87.0108 20.3714 83.2272 20.3714 81.6617 20.3714ZM91.4449 0.556152H85.3144C83.4239 0.556152 81.9876 1.11066 81.172 3.10221L69.3994 31.2421H77.7156C77.7156 31.2421 79.0847 27.4547 79.379 26.639C80.2913 26.639 88.3812 26.639 89.5549 26.639C89.7824 27.7163 90.5005 31.2421 90.5005 31.2421H97.8389L91.4449 0.556152Z" fill="#00579F"/>
<path d="M27.851 0.556152L20.0891 21.4813L19.241 17.2375C17.806 12.3406 13.3055 7.02024 8.2832 4.37481L15.3928 31.21H23.7739L36.2317 0.556152H27.851Z" fill="#00579F"/>
<path d="M12.8821 0.556152H0.130454L0 1.17618C9.94707 3.72268 16.5348 9.8609 19.2414 17.2388L16.4694 3.13562C16.013 1.17575 14.6105 0.620802 12.8821 0.556152Z" fill="#FAA61A"/>
</svg>
